<?xml version="1.0" standalone="no"?><!DOCTYPE svg PUBLIC "-//W3C//DTD SVG 1.1//EN" "http://www.w3.org/Graphics/SVG/1.1/DTD/svg11.dtd"><svg t="1774230529852" class="icon" viewBox="0 0 1024 1024" version="1.1" xmlns="http://www.w3.org/2000/svg" p-id="1843" xmlns:xlink="http://www.w3.org/1999/xlink" width="200" height="200"><path d="M60.927922 917.828403l13.474116 21.410106 124.961973 56.106594 116.83825-20.795706 127.044104-120.243046 1.134931-192.460553-18.00531-12.339184-14.745581-10.914119-74.299638-12.620784-31.197827 1.800531-23.961569-13.32905-49.203137-13.04745-76.142835-6.946124-65.646849 25.378101-42.820212 75.15297 12.569584 222.847714zM595.10537 665.199394l57.855925-31.189294 63.00152-9.215988 73.019639-30.916227 45.158342-27.434631 14.822381 1.604264 45.943408 30.839428 58.419125 124.21104-12.859717 127.052637-89.992418 133.094229-104.353999 33.271424-41.002614-3.106129-30.532228-23.765303-116.010518-129.715033-20.983439-120.993979 57.514593-73.736438z" fill="#AD2232" p-id="1844"></path><path d="M287.914297 613.71786v4.300794c-8.157856-0.588799-11.238386-2.269864-24.482102-0.878932-5.631993 0.588799-14.387182-7.697057-18.525843-1.271465 26.811699 31.897559 77.815367 56.755127 116.112918 30.088495l-28.89383-9.821854c-5.31626-0.017067-9.190388-9.224521-9.81332-9.506121 0.128-2.559997 4.044795-3.703462 4.300794-4.300795l70.06711 9.489055c10.487453 2.406397 19.959441 7.765323 28.851163 11.997851-15.778113-0.691199-5.777059 2.49173-2.303997 8.746655 21.512506 38.70715 21.811172 101.111337 10.154654 143.078217-39.253283 141.320352-232.874368 223.009847-354.781412 136.823291-6.647458-4.701861-11.912518-9.284255-10.052253 3.601062-51.558334-65.672449-61.328988-144.938481-42.111946-224.742112 13.602116-56.482061 58.931124-124.996106 118.203581-139.75022 5.785593-1.442131 24.038369-4.838394 29.491163-5.273594 2.858663-0.2304 29.047429 4.189861 33.382357 5.273594 28.953563 7.244791 54.041531 29.030363 80.39243 42.154612z m-151.978471 9.301321c-30.105561 6.664525-71.364175 65.740716-62.523654 95.470811l15.035714 15.240514c18.875709 2.082131 22.903437-14.122649 31.64156-23.39837 18.039444-19.148775 59.40899-48.401005 51.148734-76.748702-3.805862-13.064517-23.884769-13.09865-35.310888-10.564253z" fill="#AD2232" p-id="1845"></path><path d="M425.548254 643.797821c31.445293 14.967447 58.103392 42.598345 68.812712 77.363101 10.70932 34.764755 8.507722 73.659639-1.058132 108.535327-38.946083 142.011551-182.186433 234.026366-325.887582 177.330973-38.323151-15.121047-73.403639-38.562084-98.85854-70.980176-1.851731-12.876783 3.404796-8.302923 10.052254-3.601062 121.915577 86.186556 315.528128 4.497061 354.781411-136.823291 11.656518-41.966879 11.357852-104.371066-10.154653-143.078216-3.473062-6.254925-13.482649-9.437855 2.303997-8.746656z" fill="#9E1927" p-id="1846"></path><path d="M135.935826 623.019181c11.426119-2.525863 31.505026-2.49173 35.310888 10.564253 8.260256 28.347697-33.109291 57.591393-51.148735 76.748702-8.738122 9.275721-12.76585 25.480501-31.641559 23.39837l-15.035714-15.240514c-8.840522-29.730095 32.418092-88.806286 62.523653-95.470811z" fill="#C44A5A" p-id="1847"></path><path d="M287.914297 618.010121c3.455996 0.247466 32.017026 7.50079 34.406356 8.593056 0.622933 0.2816 4.497061 9.497588 9.813321 9.506121l28.893829 9.821854c-38.297551 26.666632-89.301219 1.817598-116.112917-30.088495 4.138661-6.425592 12.89385 1.860264 18.525843 1.271465 13.243716-1.390932 16.315712 0.298666 24.482101 0.878932z" fill="#9A1B2A" p-id="1848"></path><path d="M477.157788 7.723971l4.061861 29.747162-8.610122 2.705063c0.913065 7.048524-0.682666 14.694381 0.128 21.546639 0.733866 6.212259 3.933862 5.44426 4.420261 6.169592 0.810666 1.194665 3.302396 2.38933 5.128526 5.44426 79.376965 132.855296 139.067555 293.563357 207.854667 432.852778l40.780748 103.2276c-1.288532 0.716799-4.497061 7.082658-12.808517 10.828786-12.279451 5.529593-19.097575 1.510398-21.597839 2.065065l-66.594048-171.989113-163.515524-335.163303-28.945029 155.886733c-30.455428 116.897983-63.069786 240.247158-110.830791 351.265683-0.256 0.597333-4.172795 1.740798-4.300795 4.300794-2.38933-1.100799-30.95036-8.345589-34.406356-8.593056v-4.300794c79.300165-171.920846 131.003565-368.357927 150.724074-556.381153 1.860264-17.732244-0.827732-35.916754 4.428794-53.589264 11.767452-5.41866 25.011168-5.666126 34.099156 3.976528z" fill="#376D31" p-id="1849"></path><path d="M485.759377 24.918615c8.371189 10.154654 60.919388 25.369567 77.4911 32.153559 108.816927 44.561009 218.47012 87.492154 326.715314 133.384362 13.499716 5.725859 28.501297 13.235183 43.084745 14.967448 0.529066 2.44053-0.110933 5.777059-0.068267 8.482122-87.645754 29.567962-179.105903 37.819685-266.657791 2.321064-78.498033-31.829292-151.466472-95.93161-184.891496-174.122443l-4.292261 25.779167c-0.486399-0.725332-3.686395 0.042667-4.420261-6.169592-0.810666-6.860791 0.785066-14.498115-0.128-21.546639l8.610122-2.705064-4.061861-29.747161c5.998926 6.365858 2.687997 10.01812 8.601589 17.194644z" fill="#438233" p-id="1850"></path><path d="M933.067603 205.423984c-14.583448-1.723731-29.593562-9.241588-43.084745-14.967448-108.245194-45.892208-217.90692-88.831886-326.715314-133.384362-16.571712-6.783991-69.119911-21.998905-77.491101-32.153559L574.036597 3.517043c135.739559-12.211184 247.952748 35.839954 326.595847 146.227012 7.270391 10.205854 30.301828 45.815408 32.443692 55.679929z" fill="#64A338" p-id="1851"></path><path d="M834.140796 566.443254c23.799436 28.424497 51.797267 49.484736 69.648977 82.978027 71.475108 134.109695 7.816523 289.441762-129.800366 344.712091l-68.880979 19.276775c-114.65372-34.090623-211.344795-178.107505-172.040312-296.55002 14.967447-45.098609 50.952468-74.94817 97.578541-85.14549 21.367439-4.676261 44.987676-4.770127 65.851649-9.403721 2.508797-0.554666 9.318388 3.464529 21.597839-2.065065 8.302923-3.737595 11.519985-10.111987 12.808517-10.828786 1.902931-1.058132 7.347191-0.861866 11.588252-3.310929 37.444219-21.666106 45.789808-33.169024 91.630816-39.662882zM657.808222 652.382344c40.046882 11.622385 75.724703 3.387729 103.219068-27.921031 4.249595-4.838394 10.308253-7.082658 8.593056-15.044248-1.962664-2.073597-20.974906 11.187186-24.328502 12.211185-25.275701 7.688523-50.227136 14.097049-75.69057 23.21917-4.573861 1.638398-12.808517 1.587198-11.793052 7.534924z m-66.141781 56.43086c-2.97813 0.878932-13.337583 11.221319-15.675714 14.412782-23.125304 31.598893-16.631445 106.683596 27.588232 118.041449 23.953036-13.900782 13.636249-38.698617 15.325847-62.267654 0.486399-6.843725 4.087461-12.142918 4.403194-17.092245 1.638398-25.668234 5.725859-64.059651-31.641559-53.094332z" fill="#AE2132" p-id="1852"></path><path d="M705.116962 1013.410147l68.880978-19.276775c137.608357-55.270329 201.266942-210.602396 129.800367-344.712091-17.85171-33.49329-45.849541-54.55353-69.648977-82.978027 3.686395-0.520533 7.278924-5.13706 14.84798-4.445861 134.502227 12.305051 180.274969 186.743227 147.532611 297.795884-35.498621 120.371046-172.774178 188.902158-291.412959 153.625403z" fill="#9F1927" p-id="1853"></path><path d="M591.666441 708.813204c37.367419-10.965319 33.271424 27.417565 31.641559 53.094332-0.315733 4.949327-3.908262 10.24852-4.403194 17.092245-1.689598 23.57757 8.627189 48.366871-15.325847 62.267654-44.219677-11.357852-50.705002-86.451089-27.588232-118.041449 2.329597-3.191463 12.68905-13.533849 15.675714-14.412782z" fill="#C54D5A" p-id="1854"></path><path d="M657.808222 652.382344c-1.023999-5.947726 7.219191-5.896526 11.793052-7.534924 25.454901-9.122122 50.406335-15.530647 75.69057-23.21917 3.362129-1.023999 22.365838-14.284782 24.328502-12.211185 1.723731 7.96159-4.343461 10.19732-8.593056 15.044248-27.494365 31.317293-63.172186 39.551949-103.219068 27.921031z" fill="#981826" p-id="1855"></path></svg>