<?xml version="1.0" standalone="no"?><!DOCTYPE svg PUBLIC "-//W3C//DTD SVG 1.1//EN" "http://www.w3.org/Graphics/SVG/1.1/DTD/svg11.dtd"><svg t="1774230544893" class="icon" viewBox="0 0 1024 1024" version="1.1" xmlns="http://www.w3.org/2000/svg" p-id="2526" xmlns:xlink="http://www.w3.org/1999/xlink" width="200" height="200"><path d="M579.415253 958.856533c-3.182933 3.089067-10.1888 1.6896-14.472533 1.706667-10.7776 0.034133-21.563733 0.093867-32.341333 0-2.798933-0.0256-7.953067 1.2544-9.3696-1.698133 18.696533 0.093867 37.4784 0.0512 56.183466 0zM775.19552 912.896c-3.771733 5.640533-8.4992 11.6224-15.325867 6.8096l15.325867-6.8096zM604.95552 957.1584v0.887467c-5.802667 1.527467-12.561067 0.785067-18.730667 0.8192v-0.887467c5.8112-1.553067 12.544-0.7424 18.730667-0.8192zM518.128853 958.856533c-4.5056-0.0512-9.514667 0.7168-13.6192-0.8192v-0.887466c4.514133 0.298667 9.489067-0.896 13.6192 0.8192v0.887466zM497.700053 957.1584l-7.509333-0.187733-1.006933-1.518934c3.746133 0.247467 8.046933 1.672533 8.516266 1.698134zM482.38272 955.451733c-1.339733-0.059733-2.7136 0.264533-4.0448-0.187733l-1.058133-1.518933c1.288533 0.119467 2.730667-0.298667 4.0448 0.187733l1.058133 1.518933z" fill="#FDDEB1" p-id="2527"></path><path d="M240.633387 65.245867c-3.6096-0.042667-6.2208-0.785067-9.429334 1.6384-13.559467 10.248533-29.354667 31.4368-39.9104 45.201066-10.709333 13.960533-23.253333 29.4912-31.044266 45.559467-9.344 19.2512-5.623467 43.776 12.330666 56.490667 3.857067 2.730667 11.8016 5.640533 16.494934 7.338666 25.3696 9.173333 51.968 16.0256 77.5936 24.5504 62.378667 20.736 124.561067 41.557333 187.272533 61.277867 15.428267 4.846933 38.8096 15.556267 53.444267 18.048 20.548267 3.498667 35.8656-7.406933 36.2752-28.612267 51.618133 38.801067 103.893333 76.808533 160.0256 108.936534-14.532267 3.234133-21.589333 21.154133-14.455467 34.030933l196.6592 251.0336c26.018133 14.9248 46.5152 8.379733 63.7184-14.498133 21.879467-29.0816 46.728533-74.683733 55.048533-110.062934 1.6128-6.8608 2.432-13.883733 2.056534-20.923733 16.443733 17.109333 17.186133 36.360533 17.015466 58.717867-0.017067 2.7904 1.2544 7.944533-1.698133 9.3696l-1.698133-10.205867c-22.8352 61.653333-61.7216 120.2688-109.781334 165.137067-258.696533 241.518933-672.810667 138.734933-813.824-177.024-69.6064-155.921067-52.650667-363.101867 63.044267-493.661867 2.2528-2.542933 4.846933-3.754667-0.853333-3.4048 5.265067-4.855467 18.372267-12.996267 24.951466-16.750933 14.0544-8.029867 38.2208-16.145067 54.3232-13.917867 2.2784 0.315733 2.295467 1.698133 2.440534 1.7408z m-82.2016 165.469866c-14.2336 2.005333-32.1792 17.288533-37.8368 30.250667-4.4288 10.146133-7.227733 25.565867-9.284267 36.676267-8.413867 45.533867-9.275733 90.24-5.205333 136.149333 0.349867 3.908267-0.4608 8.0896 0.0768 11.844267 3.9168 27.3408 25.966933 46.045867 53.521066 46.856533l353.271467-108.142933c16.981333-14.976 16.930133-42.606933-4.5568-53.230934-103.808-30.0544-207.0528-61.7728-310.391467-93.073066-15.3856-4.6592-21.879467-9.8304-39.6032-7.338667z m354.0992 161.698134l-340.48 114.048c-10.2656 4.292267-22.3744 15.940267-26.385067 26.385066-10.0608 26.24-0.733867 43.758933 11.2128 66.338134 18.935467 35.780267 44.484267 70.272 71.799467 100.130133 27.6224 30.190933 54.365867 53.632 96.256 28.0832 52.548267-63.9232 101.6832-131.080533 152.2944-196.667733 20.932267-27.127467 43.392-53.393067 63.803733-80.887467 3.054933-4.1216 10.530133-13.3888 11.136-17.800533 1.911467-13.986133-1.211733-26.3168-12.731733-34.926934-7.483733-5.597867-17.851733-5.9904-26.914134-4.7104z m66.389333 37.435733c-20.437333 2.7136-23.944533 14.5408-34.474667 28.5184-56.448 74.9568-110.318933 151.842133-165.137066 228.078933-11.101867 15.445333-37.597867 44.535467-39.901867 62.2336-1.757867 13.482667 1.698133 30.122667 10.154667 40.8576 12.509867 15.880533 43.767467 26.734933 63.0016 34.030934 38.545067 14.6176 87.953067 26.990933 128.5888 29.730133 35.456 2.389333 64.4096-14.148267 67.285333-51.805867 2.440533-32 0.571733-68.0448 1.553067-100.573866 2.158933-71.748267 3.9936-144.256 6.954666-216.021334 0.7936-19.217067 1.774933-37.111467-15.4368-49.390933-5.205333-3.712-16.366933-6.4768-22.587733-5.6576z m73.207467 1.7152c-14.3616 1.877333-25.3952 13.9776-28.416 27.7504-0.0768 115.234133 2.824533 230.075733 1.7152 345.463467 3.012267 18.304 14.984533 32.7168 32.2816 39.210666 19.473067 7.313067 51.677867-2.338133 71.5776-8.490666 37.154133-11.485867 83.780267-34.056533 115.677866-56.260267 24.362667-16.955733 38.254933-32.580267 34.065067-64.6144-1.860267-14.1824-17.885867-30.122667-26.282667-41.8048-55.185067-76.791467-111.829333-152.593067-167.7312-228.8896-3.438933-3.950933-9.668267-9.565867-14.779733-10.752-2.218667-0.512-4.445867 0.0256-6.485333-0.324267-4.6848-0.802133-5.8368-2.039467-11.605334-1.288533z" fill="#FDEAC0" p-id="2528"></path><path d="M158.918187 94.1824c5.691733-0.349867 3.106133 0.861867 0.853333 3.4048-115.694933 130.56-132.650667 337.7408-63.018667 493.6448 141.013333 315.7504 555.118933 418.542933 813.824 177.024 48.059733-44.868267 86.9376-103.4752 109.781334-165.137067l1.698133 10.205867c-14.088533 85.538133-54.2976 157.201067-116.5824 216.200533-4.6336 4.394667-8.2432 5.7344-12.8 11.8784-4.155733 0.9472-8.328533 5.034667-11.844267 7.7312-32.9984 25.352533-67.490133 46.788267-105.6256 63.752534l-15.325866 6.8096-5.111467 1.698133c-30.532267 9.787733-61.1328 20.590933-92.842667 27.170133l-55.2704 8.567467c-0.5632 0.017067-1.134933 0-1.706666 0-6.178133 0.068267-12.910933-0.7424-18.730667 0.8192v0.887467c-2.269867 0.008533-4.539733 0-6.8096 0-18.696533 0.0512-37.4784 0.093867-56.183467 0-1.698133-0.008533-3.4048 0.017067-5.111466 0v-0.887467c-4.138667-1.7152-9.1136-0.512-13.6192-0.8192-2.2528-0.1536-4.5568 0.1536-6.8096 0-0.469333-0.034133-4.770133-1.450667-8.516267-1.698133-2.2528-0.1536-4.5568 0.110933-6.8096 0l-1.058133-1.518934c-1.314133-0.4864-2.756267-0.068267-4.0448-0.187733-41.1648-3.7888-94.5152-18.602667-132.7872-34.039467-102.254933-41.2416-208.247467-132.514133-267.016534-225.792-120.209067-190.788267-101.162667-422.801067 61.858134-581.026133 6.203733-6.024533 13.201067-12.782933 19.6096-18.688z" fill="#FA890E" p-id="2529"></path><path d="M240.633387 65.245867c60.791467 16.264533 118.365867 78.856533 165.956266 119.185066l137.079467 112.3072c-0.4096 21.205333-15.735467 32.110933-36.2752 28.612267-14.6432-2.491733-38.016-13.201067-53.444267-18.048-62.702933-19.720533-124.893867-40.541867-187.272533-61.277867-25.6256-8.516267-52.224-15.377067-77.5936-24.5504-4.693333-1.698133-12.637867-4.608-16.494933-7.338666-17.9456-12.714667-21.674667-37.239467-12.330667-56.490667 7.790933-16.059733 20.334933-31.598933 31.044267-45.559467 10.555733-13.764267 26.3424-34.952533 39.9104-45.201066 3.208533-2.423467 5.819733-1.672533 9.429333-1.6384zM703.69472 405.674667c52.727467 30.173867 107.946667 56.0128 164.650667 77.934933 37.0688 14.327467 112.187733 34.389333 138.385066 61.636267 0.375467 7.04-0.443733 14.062933-2.056533 20.923733-8.32 35.3792-33.169067 80.981333-55.048533 110.062933-17.211733 22.877867-37.700267 29.422933-63.7184 14.498134L689.247787 439.697067c-7.133867-12.8768-0.0768-30.7968 14.455466-34.030934z m40.149333 40.994133c-6.050133 1.723733 0.1536 18.7648 2.0736 23.168 4.309333 9.8816 20.130133 26.820267 29.764267 31.522133 6.007467 2.926933 28.637867 9.130667 32.7936 3.1232 4.804267-26.948267-18.312533-49.928533-42.999467-55.901866-5.316267-1.288533-16.785067-3.293867-21.632-1.911467z" fill="#FBAC42" p-id="2530"></path><path d="M578.92032 429.8496c6.2208-0.827733 17.373867 1.9456 22.587733 5.6576 17.220267 12.279467 16.2304 30.173867 15.4368 49.390933-2.961067 71.765333-4.795733 144.273067-6.954666 216.021334-0.981333 32.529067 0.887467 68.573867-1.553067 100.573866-2.875733 37.6576-31.829333 54.1952-67.285333 51.805867-40.635733-2.7392-90.0352-15.112533-128.5888-29.730133-19.242667-7.296-50.491733-18.1504-63.0016-34.030934-8.456533-10.734933-11.912533-27.374933-10.154667-40.8576 2.304-17.698133 28.8-46.788267 39.901867-62.2336 54.818133-76.2368 108.689067-153.122133 165.137066-228.078933 10.530133-13.9776 14.037333-25.8048 34.474667-28.5184z m-13.7216 67.933867c-7.7056 1.527467-24.968533 20.3008-28.706133 27.52-6.920533 13.380267-9.5744 31.4112-6.1696 46.045866 1.0752 4.6336 7.031467 13.866667 12.228266 12.8512 13.098667-2.56 27.9808-24.541867 31.342934-36.829866 3.959467-14.455467 4.7872-37.998933-5.674667-49.7152l-3.0208 0.119466z" fill="#FBAC41" p-id="2531"></path><path d="M512.530987 392.413867c9.053867-1.28 19.421867-0.887467 26.914133 4.7104 11.52 8.610133 14.6432 20.9408 12.731733 34.926933-0.605867 4.420267-8.081067 13.687467-11.136 17.800533-20.420267 27.4944-42.871467 53.76-63.803733 80.887467-50.619733 65.578667-99.746133 132.744533-152.2944 196.667733-41.890133 25.5488-68.6336 2.107733-96.256-28.0832-27.3152-29.858133-52.864-64.341333-71.799467-100.130133-11.946667-22.5792-21.282133-40.098133-11.2128-66.338133 4.002133-10.4448 16.119467-22.0928 26.385067-26.385067l340.48-114.048z m-23.424 43.9808c-20.974933-5.538133-48.896 4.7872-62.941867 21.154133-8.302933 9.685333-14.592 21.905067-11.118933 35.012267 4.053333 5.973333 21.930667 2.952533 28.2368 0.827733 23.074133-7.765333 46.429867-31.5392 45.815466-56.994133z" fill="#FAAC41" p-id="2532"></path><path d="M652.127787 431.5648c5.777067-0.750933 6.929067 0.4864 11.605333 1.288533 2.039467 0.349867 4.266667-0.196267 6.485333 0.324267 5.102933 1.186133 11.3408 6.8096 14.779734 10.752 55.901867 76.305067 112.546133 152.098133 167.7312 228.8896 8.3968 11.682133 24.430933 27.6224 26.282666 41.8048 4.189867 32.0256-9.693867 47.650133-34.065066 64.6144-31.8976 22.203733-78.523733 44.765867-115.677867 56.260267-19.8912 6.152533-52.104533 15.803733-71.5776 8.490666-17.297067-6.5024-29.269333-20.906667-32.2816-39.210666 1.109333-115.387733-1.792-230.229333-1.7152-345.463467 3.0208-13.7728 14.0544-25.873067 28.416-27.7504z m18.500266 54.186667c-2.645333 0.750933-7.381333 13.0816-7.765333 16.119466-2.440533 19.063467 0.904533 39.816533 12.817067 55.2192 4.804267 6.212267 20.0448 19.5328 27.195733 12.023467 10.24-16.938667 6.801067-40.567467-2.2528-57.378133-3.584-6.656-22.016-28.245333-29.986133-25.975467z" fill="#FBAC41" p-id="2533"></path><path d="M158.431787 230.715733c17.723733-2.500267 24.2176 2.679467 39.6032 7.338667 103.338667 31.300267 206.574933 63.010133 310.391466 93.073067 21.486933 10.624 21.538133 38.254933 4.5568 53.230933L159.711787 492.501333c-27.554133-0.810667-49.6128-19.515733-53.521067-46.856533-0.5376-3.746133 0.273067-7.927467-0.0768-11.844267-4.078933-45.9008-3.217067-90.615467 5.205333-136.149333 2.056533-11.1104 4.846933-26.530133 9.284267-36.676267 5.6576-12.962133 23.6032-28.245333 37.8368-30.250666z m243.456 100.360534c-9.873067 1.4592-21.742933 3.464533-30.122667 9.105066-2.304 1.553067-10.350933 9.634133-10.350933 11.8784 17.7152 29.098667 68.9664 28.270933 90.2144 3.242667 0.7424-2.542933-0.196267-3.268267-1.544534-4.992-6.843733-8.7552-22.434133-15.7184-33.271466-17.792-2.619733-0.503467-12.706133-1.7664-14.916267-1.442133z" fill="#FBAC42" p-id="2534"></path><path d="M743.844053 446.6688c4.846933-1.3824 16.315733 0.622933 21.632 1.911467 24.686933 5.973333 47.803733 28.9536 42.999467 55.901866-4.155733 6.007467-26.794667-0.196267-32.7936-3.1232-9.634133-4.701867-25.454933-21.640533-29.764267-31.522133-1.92-4.4032-8.123733-21.444267-2.0736-23.168zM565.19872 497.783467l3.0208-0.119467c10.461867 11.707733 9.634133 35.259733 5.674667 49.7152-3.362133 12.288-18.2528 34.269867-31.342934 36.829867-5.1968 1.015467-11.153067-8.226133-12.228266-12.8512-3.4048-14.634667-0.750933-32.674133 6.1696-46.045867 3.7376-7.2192 21.000533-25.992533 28.706133-27.52zM489.106987 436.394667c0.6144 25.463467-22.741333 49.237333-45.815467 56.994133-6.306133 2.1248-24.183467 5.1456-28.2368-0.827733-3.473067-13.115733 2.816-25.326933 11.118933-35.012267 14.037333-16.375467 41.9584-26.7008 62.941867-21.154133zM670.628053 485.751467c7.970133-2.269867 26.402133 19.310933 29.986134 25.975466 9.053867 16.810667 12.501333 40.439467 2.2528 57.378134-7.150933 7.509333-22.391467-5.8112-27.195734-12.023467-11.904-15.402667-15.2576-36.155733-12.817066-55.2192 0.392533-3.029333 5.12-15.36 7.765333-16.119467zM401.887787 331.076267c2.210133-0.324267 12.296533 0.938667 14.916266 1.442133 10.845867 2.0736 26.427733 9.0368 33.271467 17.792 1.348267 1.723733 2.295467 2.449067 1.544533 4.992-21.248 25.028267-72.4992 25.856-90.2144-3.242667 0-2.244267 8.046933-10.325333 10.350934-11.8784 8.379733-5.640533 20.2496-7.637333 30.122666-9.105066z" fill="#FAFBFA" p-id="2535"></path></svg>