<?xml version="1.0" standalone="no"?><!DOCTYPE svg PUBLIC "-//W3C//DTD SVG 1.1//EN" "http://www.w3.org/Graphics/SVG/1.1/DTD/svg11.dtd"><svg t="1774230541693" class="icon" viewBox="0 0 1024 1024" version="1.1" xmlns="http://www.w3.org/2000/svg" p-id="2338" xmlns:xlink="http://www.w3.org/1999/xlink" width="200" height="200"><path d="M879.954451 389.656324c-2.909857 1.399462-1.646928 6.468245-1.672527 9.224503-0.409599 47.248912-18.20154 92.390097-61.798198 113.510028l-1.288529 3.037857c-9.301303 1.075196-18.107674 7.679975-26.939645 9.719435-3.933854 0.90453-7.970107-1.10933-10.572766 2.833057 3.643721 4.00212 9.26717 7.662908 10.052234 13.414356 3.839987 28.253774-5.913581 68.292043-22.672992 91.340501-31.138031 42.811593-86.015718 59.383272-135.491823 39.995602-3.293856-1.288529-4.369052-6.22078-9.506102-4.744517 5.00905 5.205316 8.874638 11.972227 14.216486 16.793545 13.37169 12.074627 36.275081 22.007395 53.742758 25.070851 1.894394 0.332799 3.908254-0.0512 5.811181 0.0512 0.972797 12.748758-0.665598 23.782322-3.310923 36.095882-10.888498 50.670767-47.573178 88.200244-99.77994 94.711156-11.656495 1.450662-20.019134 2.201593-31.863362-0.0512-11.426096-2.175993-22.621793-7.825041-32.716693-13.388756-0.682664 3.12319 1.715194 3.967987 3.345056 5.870914 14.105554 16.435146 33.134825 30.779633 54.817954 35.72895 2.739191 0.622931 5.631982-0.162133 7.918907 0.460798 3.882654 1.05813 2.926924 11.801561 2.628258 15.752482-1.510395 19.899668-12.654892 52.496895-26.717779 67.17418-11.502896 12.006361-26.444713 24.814852-41.958263 31.812163-18.40634 8.302906-43.007859 12.885291-62.591795 8.874637-11.980761-2.449059-23.048458-9.019704-34.687886-11.417562-23.901788-32.085228-28.031908-64.016857-14.284753-102.305799 0.622931-1.732261 2.056527-3.012257 2.534391-4.172786 1.826127-4.437319-6.340246-0.93013-6.698644-4.18132 5.324783 0.230399 10.803165-0.785064 15.923148 1.015464l31.018565-9.39517c-14.540752 9.915701-3.549855 26.547113 10.837297 25.156185 1.91146-0.187733 7.355709-1.723728 9.34397-2.466126 6.749845-2.517325 17.356743-11.665028 20.4202-18.141807 1.535995-3.242656 3.541322-8.447972 2.773324-11.827161-1.843194-8.072507-6.178113-8.712505-13.19249-11.170097 3.165856-1.954127 19.942335-29.004705 21.794062-33.53589l0.836264 1.672528h4.189853c1.877327-4.497052-3.157323-6.237846-3.353589-6.698645-0.98133-2.363726-4.829851-22.33166-5.102917-25.915648-0.836264-11.042097-0.537598-27.673509 2.107726-38.280408 1.587195-6.391446 4.881051-7.799441 3.003724-14.609019l3.285322-0.042667c0.1024-6.203713 4.514119-11.17863 6.775445-16.725278 6.613312-0.332799 12.552492-1.672528 18.935405-3.694921 6.929044-2.193059 14.079954-6.843711 21.29913-8.038374-3.857054 3.379189-10.513032 12.919424-11.400496 17.928474-2.636791 14.754085 9.540235 19.020738 22.297527 17.279944 4.889584-0.665598 16.836212-9.437836 20.053268-13.482623 4.95785-6.229313 10.453299-16.170614 5.068783-23.36419-7.551975-10.077834-21.27353-6.007447-30.984432-1.715194 0.98133-3.618121 4.846917-3.07199 7.620242-4.957851 2.380792-1.621328 19.36207-18.585539 20.966331-20.957798 1.553062-2.295459 1.203196-4.582385 1.971194-5.631981 0.383999-0.529065 2.03946-0.401065 2.978123-1.996794h13.414356c1.203196-1.16053-5.435716-11.33223-6.707178-13.414356 11.690628-26.939645 11.15303-57.156079 0-83.831192l10.888498-18.457539-4.18132-3.336523c3.012257-0.264532 10.0437-1.348262 13.934888-1.996793 17.19461-2.858657 43.178525-19.609536 54.88622-32.349761 1.757861-1.91146 0.998397-4.804251 4.770118-4.420252l-0.878931-2.312526c-0.034133-0.810664 0.98133-0.691198 1.066664-0.844797h13.414356l-6.707178-11.733295c0.913064-1.587195 2.568525-1.459195 2.96959-1.996794 3.498655-4.770118 9.335436-24.362587 10.410633-30.728432 3.515722-20.932198 0.068266-36.906546-6.673045-56.132083 4.863984 3.157323 2.389326 1.203196 4.095986-1.732261 37.264945-64.093657 131.498236-68.266443 175.308226-8.319973z m-112.776164-13.158357c-15.223417 1.433595-37.922009 18.25274-32.878825 35.57535 0.383999 1.322662 3.549855 4.309319 4.863984 5.196783 12.876758 8.712505 34.133222-4.317853 40.993999-15.923148 3.626655-6.135447 5.555182-11.921028 1.698128-18.389273-2.457592-4.13012-10.052234-6.903444-14.677286-6.468245zM669.85594 530.814262c-10.504499 1.774928-25.224451 14.805285-26.325248 25.702315-0.520532 5.16265 3.19999 13.457023 8.328506 15.112484 14.09702 4.565318 33.774823-8.072507 39.509204-20.991931 7.628775-17.177544-6.323179-22.399927-21.512462-19.831402z" fill="#753A96" p-id="2339"></path><path d="M618.391575 332.645311c-9.028237-1.527462-19.23407-2.730658-28.50124-1.672528-17.339677-19.660736-40.959866-33.971089-63.709658-46.950247-0.358399 5.802648 0.452265 11.903961 0.068266 17.681009-1.407995 21.32473-6.340246 50.252635-11.810094 71.184834-1.13493 4.351986-3.387722 10.342366-5.026117 15.086884-4.872517 3.17439-2.380792 1.177596-4.095987-1.740795-2.841591-4.838384-5.555182-6.365846-7.313043-8.567438-1.049597-1.314129 0.290132-5.956247-3.677854-6.459712-0.128-1.604261-0.085333-3.413322 0-5.026117 0.921597-18.167407 7.978641-40.456401 10.026634-59.553939 0.699731-6.493845-0.98133-12.782891 1.706661-19.242603-2.338126-0.443732-3.703455 0.913064-5.572249 1.971193-9.548769 5.401582-22.476726 14.071421-31.240431 20.735932-9.01117 6.852244-16.554612 15.35995-25.224451 22.56206l-4.147186 1.689594c-6.451179-1.868794-13.201023-2.687991-19.831402-3.677854-0.913064-0.136533-1.08373-1.348262-1.177596-1.365329l10.026634-12.603692c19.780202-18.193007 41.540131-33.936956 64.639788-47.692644 7.381309-6.980244 6.553579-32.622826 5.879448-42.888393-2.952524-45.380118-22.988725-88.67811-48.699574-124.842258-3.387722-4.770118-6.587712-8.994104-10.060767-13.414356-3.711988-4.727451-7.543442-11.22983-11.707695-15.957281-13.661822-15.539149-34.431887-25.787649-17.595676-49.390771 9.361036-13.11569 37.71721-29.55937 52.727294-19.276737 5.119983 3.507189 19.242604 26.914045 23.261791 33.749223 37.973209 64.545922 54.280356 132.761165 50.636634 207.717719-0.273066 5.657581-3.302389 8.857571-0.989864 15.940215 2.730658 8.362639 27.784442 21.717262 36.053216 27.656442 16.930078 12.151427 34.867086 26.137514 45.345984 44.356122z" fill="#5D361F" p-id="2340"></path><path d="M450.729191 101.264735c-3.541322-0.409599-6.638912 0.153599-10.094901 0.810664-17.049544 3.225589-42.376395 11.895428-55.876083 22.928992-1.817594 1.484795-3.464522 1.681061-2.781858 4.770117h24.311387c3.114656 0 16.895945 6.050114 20.4458 8.055441 4.522652 2.559992 14.182354 9.386636 16.836211 12.424492 7.25331 8.319973 14.17382 21.307664 15.496483 32.375361 2.508792 20.949265-6.348779 8.601572-14.207954 7.509309-2.363726-0.332799-7.261843-0.597331-9.215969 0.836264 3.080523 4.98345 7.04851 10.257033 9.796234 15.351416 11.699162 21.674596 15.445283 38.860673 6.152513 62.642995-1.817594 4.650651-4.667718 10.188767-8.490638 13.363156-1.979727 0.622931-7.628775-5.896514-9.21597-7.492242-2.431992-2.449059-2.457592-3.012257-5.819715-5.819714-3.012257-2.508792-4.095987-6.263446-9.190369-5.102917 2.269859 16.878878-4.292253 37.572144-18.466073 47.76091-1.979727 1.425062-3.967987 3.157323-5.845315 0.870397-2.679458-3.251189-5.196783-11.767428-7.253309-16.273013-0.98133-2.158926 0.221866-2.747724-3.635188-2.184526-5.580782 17.075144-20.3434 32.076695-36.394548 39.901736-3.515722 1.715194-14.421286 6.365846-17.305543 4.590918-5.026117-3.09759-10.487432-20.821265-11.630895-26.948178-2.585592-13.738622-1.450662-24.917252-0.034133-38.476674 0.281599-2.739191 2.03946-4.514119 1.672527-8.36264-0.273066-2.892791-3.208523-10.103434-6.007447-10.92263l-7.116776 3.626654c-12.219693 28.339107-22.118328 61.798198-58.08621 65.16032-6.946111 0.648531-14.412753 0.162133-21.017531-1.757861l5.017583-20.104467c-18.184474 5.836781-38.59614 8.089574-57.813144 6.673045-8.422372-0.622931-17.655409-3.310922-26.026581-4.991984-3.310922-3.967987 0.426665-3.575455 3.481589-5.742914 34.372154-24.439387 66.482982-52.300629 99.609273-78.122411 39.637204-30.899099 89.173041-62.224863 121.591069-98.892476 6.203713-7.014377 23.526323-16.725279 32.358294-20.454333l34.704953-11.400496c3.473055 4.420252 6.673045 8.644238 10.060767 13.414356z" fill="#80CE3A" p-id="2341"></path><path d="M148.923246 302.463009c-0.95573-0.187733-2.201593 0.298666-3.259723-0.059733 0.554665-2.739191-1.749328-5.375982-1.757861-7.483709-0.008533-6.340246 2.389326-19.481536 3.729054-26.444713 3.575455-18.568473 11.170097-34.952419 21.42713-50.679301 0.298666-3.208523 0.068266-2.414925-2.517325-2.525858-6.161046-0.264532-11.451696 0.0512-17.570076-1.723728-0.452265-8.072507 1.143463-17.228744 4.625052-24.618586 9.207437-19.532736 31.376964-28.595106 51.558231-32.272961 7.17651-1.305596 20.411666-0.554665 25.130584-5.051716 5.563715-5.307716 1.638395-7.551975-3.771721-9.719435-15.103951-6.06718-32.110828-4.889584-47.325711-13.038891-5.08585-2.722124-20.735932-13.525289-21.691662-18.653806-0.989863-5.324783 6.843711-12.10876 10.683698-15.709815 1.314129-1.237329 4.283719-4.309319 4.565318-4.522652 11.946628-9.378103 26.837245-14.233553 41.574264-17.19461 0.631465-2.551458-0.546132-2.739191-1.672528-4.198386-3.549855-4.625052-7.645842-9.21597-11.733295-13.405823 13.823955-12.851158 34.483087-12.902358 52.001963-8.388239l3.310923-1.663995c-3.165856-5.452782-5.341849-11.409029-8.038374-17.100744-1.723728-3.635188-5.11145-5.273583-3.677854-10.547165 9.634102-1.732261 21.264997-2.696525 31.078298-1.766394 10.461832 0.989863 27.110311 10.060767 35.174285 16.802078 4.445852 3.711988 14.924751 16.878878 18.414873 18.474606 2.713591 1.245863 4.20692-4.454385 4.198386-5.828248 0-1.681061-1.510395-3.353589-1.663995-5.102916-0.375465-4.437319 0.972797-8.550372-1.706661-12.535426 15.667149-0.597331 32.58016 13.11569 39.978536 26.248448 5.546649 9.864501 9.668235 27.195644 8.721038 38.374274-0.767997 9.03677-5.546649 18.30394-5.102917 27.59671-32.418027 36.667613-81.953865 67.993377-121.591068 98.892476-33.117758 25.821782-65.23712 53.683024-99.609274 78.122411-3.054923 2.16746-6.792511 1.774928-3.481588 5.742914z" fill="#9EF152" p-id="2342"></path><path d="M879.954451 389.656324c42.128929 57.642478 18.218607 140.850739-50.235568 163.540798-9.369569 3.106123-19.131671 3.694921-28.569507 5.802647l8.345573 27.69911c10.060767 58.239809-28.688973 112.272699-86.348517 123.16973l-20.923665 1.715194c3.276789 9.096504 8.388239 17.356743 10.948231 26.777512 7.065577 26.018048 3.933854 54.365689-8.942904 78.335744-18.312473 34.107622-56.644081 57.471812-95.897286 54.169422-1.08373 1.08373 5.367449 16.349813 6.297579 19.686336 26.077781 93.456761-75.186954 167.065053-157.780817 117.537748-12.646359-7.586108-19.421803-15.146617-27.929508-26.564179 11.639429 2.406392 22.698592 8.968504 34.687886 11.417562 19.575403 4.00212 44.176922-0.571731 62.591795-8.874637 15.513549-6.99731 30.455367-19.814335 41.958263-31.812163 14.071421-14.677285 25.215917-47.274512 26.717779-67.17418 0.298666-3.95092 1.254396-14.685819-2.628258-15.752482-2.286926-0.622931-5.179716 0.162133-7.918907-0.460798-21.683129-4.940784-40.7124-19.28527-54.817954-35.72895-1.629861-1.902927-4.02772-2.747724-3.345056-5.870914 10.086367 5.563715 21.282064 11.212763 32.716693 13.388756 11.844228 2.252793 20.206867 1.510395 31.863362 0.0512 52.206762-6.510912 88.891442-44.048922 99.77994-94.711156 2.645325-12.31356 4.275186-23.347124 3.310923-36.095882-1.902927-0.093866-3.916787 0.281599-5.811181-0.0512-17.467676-3.063457-40.371068-12.996224-53.742758-25.070851-5.341849-4.821318-9.207437-11.588229-14.216486-16.793545 5.13705-1.476262 6.212246 3.455989 9.506102 4.744517 49.476105 19.379137 104.345258 2.815991 135.491823-39.995602 16.759412-23.048458 26.51298-63.086727 22.672992-91.340501-0.785064-5.751448-6.399979-9.412236-10.052234-13.414356 2.602658-3.942387 6.638912-1.928527 10.572766-2.833057 8.831971-2.03946 17.638342-8.644238 26.939645-9.719435l1.288529-3.037857c43.596657-21.119931 61.388599-66.261116 61.798198-113.510028 0.0256-2.756258-1.237329-7.825041 1.672527-9.224503z" fill="#5E2679" p-id="2343"></path><path d="M700.550239 399.708558c6.741311 19.23407 10.188767 35.199885 6.673045 56.132082-1.066663 6.374379-6.903444 25.958315-10.410633 30.728433-0.401065 0.546132-2.056527 0.409599-2.96959 1.996794-2.133326 3.694921-4.548252 7.859174-6.707178 11.733295-0.085333 0.153599-1.10933 0.034133-1.066663 0.844797l0.87893 2.312526c-3.771721-0.383999-3.012257 2.508792-4.770117 4.420252-11.707695 12.740225-37.69161 29.491103-54.886221 32.34976-3.882654 0.648531-10.922631 1.732261-13.934887 1.996794-5.393049 0.477865-11.289563-0.341332-16.767945 0-0.537598 2.227193 0.571731 2.892791 1.399462 4.471452 3.336522 6.365846 5.811181 10.513032 8.661305 17.32261 11.15303 26.683646 11.690628 56.891547 0 83.831192-1.672528 3.848521-4.701851 10.009567-6.707178 13.414356-0.938664 1.595728-2.585592 1.467729-2.978124 1.996793-0.767997 1.049597-0.418132 3.336522-1.971194 5.631982-1.604261 2.372259-18.585539 19.33647-20.966331 20.957798-2.773324 1.877327-6.638912 1.339729-7.620242 4.957851-1.373862 0.605865-3.891187 2.355192-5.026117 3.353589-7.219176 1.194663-14.37862 5.845314-21.29913 8.038373-6.391446 2.022393-12.322093 3.362122-18.935404 3.694921-5.546649 0.281599-11.212763-0.204799-16.767946 0-0.767997 0.725331 5.939181 13.986088 6.707179 16.767946 1.88586 6.809578-1.407995 8.217573-3.003724 14.609018-2.636791 10.606899-2.94399 27.246844-2.107726 38.280408 0.273066 3.583988 4.121587 23.551923 5.102916 25.915649 0.307199 1.996793-1.00693 3.387722-1.672528 5.026117-1.851727 4.531185-18.628206 31.581763-21.794062 33.53589-6.434112 3.959454-12.842625 8.831971-19.541269 13.149823-3.17439 2.047993-7.560509 3.191456-10.632498 5.29065l-31.018566 9.395169c-5.119983-1.800527-10.598365-0.785064-15.923147-1.015463-34.867086-1.510395-59.707538-13.986088-80.477603-41.915596 0.639998-3.09759 4.684785 1.03253 5.879447 1.663994 2.867191 1.527462 9.557302 5.717315 11.989294 6.451179 62.03713 18.824472 123.903594-17.501809 142.745133-78.037078 5.026117-16.145014 6.493845-31.180698 5.230916-48.144909l-2.542925-2.483192-19.686336-3.788787c-6.323179-4.590918-13.175424-5.845314-20.121534-10.052234-12.347693-7.466642-23.193524-18.047941-31.274564-29.917769 1.365329-1.237329 10.769031 6.382912 13.380223 7.577576 18.474606 8.447972 46.301715 10.1205 65.919784 5.478382 54.485155-12.885291 88.345311-61.217933 91.801299-116.104153 0.230399-3.694921 0.597331-13.806888-0.247466-16.665546-1.416529-4.804251-15.667149-5.128517-20.437266-6.391446-10.777565-2.850124-28.851106-11.767428-37.734277-18.525806-0.511998-0.383999-0.170666-2.06506-0.682664-2.500258-6.229313-5.179716-13.277823-10.291166-18.099141-17.19461 0.861864-0.085333 2.133326-1.766394 3.916787-1.450662 3.95092 0.682664 11.511429 6.186646 15.709816 7.816507 58.521408 22.766859 127.35105-18.713539 144.34086-76.296283 4.522652-15.317283 5.265049-30.685766 5.384516-46.591848 0.017067-2.756258-1.237329-7.825041 1.672528-9.224503 7.517842 10.2229 9.29277 13.388756 13.414356 25.147651z" fill="#5D2579" p-id="2344"></path><path d="M767.178287 376.497967c4.625052-0.435199 12.219693 2.329592 14.677286 6.468245 3.848521 6.468245 1.928527 12.253827-1.698128 18.389274-6.852244 11.596762-28.117241 24.627119-40.993999 15.923147-1.314129-0.887464-4.479985-3.874121-4.863984-5.196783-5.03465-17.331143 17.663942-34.141755 32.878825-35.57535z" fill="#A76FBE" p-id="2345"></path><path d="M669.85594 530.814262c15.189284-2.568525 29.132705 2.653858 21.512462 19.831401-5.734381 12.919424-25.40365 25.55725-39.509204 20.991932-5.128517-1.663995-8.849038-9.949834-8.328506-15.112484 1.100796-10.897031 15.820748-23.927388 26.325248-25.702316z" fill="#A970BF" p-id="2346"></path><path d="M487.610136 844.029236c7.02291 2.457592 11.357829 3.09759 13.192491 11.170097 0.767997 3.370656-1.245863 8.584505-2.773325 11.827161-3.063457 6.476779-13.678889 15.624482-20.4202 18.141807-1.979727 0.742398-7.432509 2.286926-9.343969 2.466125-14.387153 1.382395-25.37805-15.240483-10.837298-25.156184 3.07199-2.099193 7.458109-3.242656 10.632499-5.290649 6.698645-4.317853 13.107157-9.19037 19.541269-13.149824z" fill="#A870BD" p-id="2347"></path><path d="M613.365458 542.231824l4.18132 3.336523-10.888498 18.457539c-2.850124-6.809578-5.324783-10.965297-8.661305-17.32261-0.827731-1.578661-1.928527-2.244259-1.399462-4.471452 5.478382-0.341332 11.366363 0.477865 16.767945 0z" fill="#F2F1F6" p-id="2348"></path><path d="M521.146027 709.894208c-2.261326 5.546649-6.664512 10.521566-6.775445 16.725279l-3.285322 0.042667c-0.767997-2.781858-7.475176-16.042614-6.707179-16.767946 5.555182-0.204799 11.221297 0.281599 16.767946 0z" fill="#EFEAF3" p-id="2349"></path><path d="M606.65828 647.857078c1.262929 2.073593 7.910374 12.245293 6.707178 13.414356h-13.414356c1.996793-3.396256 5.03465-9.565835 6.707178-13.414356z" fill="#EEE6F3" p-id="2350"></path><path d="M693.843061 488.5744l6.707178 11.733295h-13.414356c2.158926-3.874121 4.573852-8.038374 6.707178-11.733295z" fill="#F2E9F5" p-id="2351"></path><path d="M561.389095 698.160914c1.143463-0.998397 3.652255-2.747724 5.026117-3.353589 9.710902-4.292253 23.423923-8.362639 30.984432 1.715194 5.393049 7.193576-0.110933 17.134877-5.068784 23.36419-3.217056 4.044787-15.15515 12.817025-20.053268 13.482623-12.757292 1.740794-24.934318-2.525858-22.297527-17.279944 0.895997-5.00905 7.543442-14.549286 11.400496-17.928474z" fill="#AA70BF" p-id="2352"></path><path d="M511.08526 805.467229c0.196266 0.469332 5.230916 2.201593 3.353589 6.707178h-4.189853l-0.836264-1.672528c0.674131-1.638395 1.979727-3.029323 1.672528-5.026117z" fill="#E9D4F1" p-id="2353"></path><path d="M444.022012 332.645311c8.669838-7.20211 16.204747-15.709815 25.224451-22.56206 8.763705-6.664512 21.691662-15.33435 31.240431-20.735932 1.868794-1.05813 3.234123-2.406392 5.572249-1.971193-2.696525 6.459712-1.015463 12.748758-1.706661 19.242603-2.047993 19.097537-9.105037 41.386531-10.026634 59.553938-4.974917 3.362122-2.295459 0.691198-4.198387-1.612794-10.052234-12.15996-27.161511-21.290597-41.51453-27.306578-2.781858-1.169063-5.478382-0.383999-4.582385-4.607984z" fill="#FCFCFB" p-id="2354"></path><path d="M444.022012 332.645311c-0.895997 4.223986 1.800527 3.438922 4.582385 4.607984 14.35302 6.024514 31.47083 15.146617 41.514531 27.306578 1.902927 2.303992-0.785064 4.974917 4.198386 1.612794-0.085333 1.612795-0.128 3.430389 0 5.026117 4.471452 55.355552-14.779685 103.056729-64.887254 128.767579-29.764169 15.274617-59.869671 16.793545-90.572503 2.380792-3.566922-1.672528-4.812784-3.592522-9.710902-4.753051-0.460798-0.110933-0.750931 1.03253-0.819197 1.03253-1.382395 0.034133-1.979727-1.868794-3.353589-1.672528l1.612795-3.234123c-7.270376-1.826127-8.311439-13.934888-13.081557-19.669269l-6.971711-32.42656c-5.947714 22.203661-19.396203 44.526788-36.966279 59.451538-33.518824 28.467107-77.124014 35.430284-116.803884 16.349813-1.356796-0.648531-6.724245-3.285323-7.193576-0.349865-57.557145-76.919215 2.935457-178.883681 98.047678-169.309312 23.056991 2.321059 54.169423 19.933801 67.942178 38.527874v15.086883l4.838384-6.143979c0.247466-1.476262-0.887464-2.662391-1.484795-3.916788 4.283719 0.913064 3.285323-1.860261 4.693318-4.497052 19.857002-37.094279 53.128359-55.389685 95.069555-55.91875 1.629861-0.017067 3.780254-1.715194 4.189853-1.629861 0.085333 0.017067 0.264532 1.228796 1.177596 1.365329 6.630378 0.989863 13.380223 1.809061 19.831402 3.677854l4.147186-1.689594z m-65.953917 28.774305c-8.046907 1.766394-23.176457 13.24369-25.50605 21.444197-6.980244 24.558853 20.2922 23.944455 35.319351 11.844228 18.184474-14.626085 18.474606-39.500671-9.813301-33.288425z m-177.612218 15.078351c-14.455419 2.210126-37.751343 18.466073-32.332694 35.037752 2.91839 8.925837 13.730088 9.318369 21.555129 7.97864 6.237846-1.066663 18.38074-9.591435 22.075661-14.813818 2.611191-3.677855 6.621845-13.038891 5.691715-17.288476-1.356796-6.14398-11.391963-11.775961-16.989811-10.914098z" fill="#743A95" p-id="2355"></path><path d="M145.569657 517.084173c0.477865-2.935457 5.845314-0.298666 7.193576 0.349866 39.67987 19.080471 83.293594 12.117294 116.803884-16.349813 17.561542-14.924751 31.010032-37.247878 36.966279-59.451539l6.971711 32.42656c4.778651 5.734381 5.819714 17.843142 13.081557 19.669269l-1.612795 3.234123-1.672528 1.672528c-0.401065-0.085333-2.568525 1.595728-4.189853 1.629861-26.58978 0.546132-38.980139 5.11145-60.603535 19.933802-3.464522 2.372259-6.724245 4.019187-9.847434 6.869311-4.872517 4.454385-19.123137 19.882602-21.802595 25.190317-0.989863 1.96266-1.322662 4.223986-2.483192 6.741311-14.933284-2.440525-29.354571-4.565318-43.076126-11.409029-14.882085-7.432509-25.958315-17.459143-35.720416-30.506567z" fill="#5D2576" p-id="2356"></path><path d="M314.913102 391.328852c0.597331 1.245863 1.732261 2.440525 1.484795 3.916787l-4.829851 6.14398V386.302735c1.117863 1.510395 2.568525 3.404789 3.353589 5.026117z" fill="#5A256D" p-id="2357"></path><path d="M200.455877 376.497967c5.597848-0.853331 15.633015 4.778651 16.989811 10.914098 0.938664 4.249586-3.080523 13.602089-5.691715 17.288476-3.694921 5.21385-15.837815 13.738622-22.075661 14.813818-7.825041 1.339729-18.636739 0.947197-21.555129-7.97864-5.418649-16.571679 17.868741-32.827626 32.332694-35.037752z" fill="#A96EBD" p-id="2358"></path><path d="M478.709899 529.141734c25.949782-4.488519 22.928992 23.244724 5.503982 35.686283-8.388239 5.99038-28.467107 12.612225-34.372154 0.921597-7.722641-15.291683 15.172217-34.235621 28.859639-36.60788z" fill="#A86EBE" p-id="2359"></path><path d="M516.11991 500.316228c4.821318 6.903444 11.869828 12.014894 18.09914 17.19461 0.511998 0.426665 0.179199 2.107726 0.682665 2.500259 8.874638 6.749845 26.956712 15.667149 37.734276 18.525806 4.770118 1.262929 19.020738 1.587195 20.437267 6.391446 0.844797 2.867191 0.477865 12.979157 0.247466 16.665545-3.455989 54.894754-37.316144 103.218862-91.8013 116.104153-19.609536 4.642118-47.436645 2.96959-65.919784-5.478382-2.602658-1.194663-12.014894-8.814904-13.380223-7.577575 8.08104 11.869828 18.926871 22.451126 31.274564 29.917769 6.954644 4.20692 13.798355 5.461315 20.121535 10.052233l19.686335 3.788788 2.542925 2.483192c1.262929 16.955678-0.204799 31.999895-5.230916 48.144909-18.841538 60.535268-80.708002 96.870083-142.745133 78.037078-2.431992-0.742398-9.122103-4.932251-11.989294-6.451179-1.194663-0.631465-5.247983-4.761584-5.879447-1.663995-21.674596-29.132705-28.048975-62.182196-15.948748-97.262615 2.389326-6.929044 6.033047-13.550889 9.24157-20.095934l-13.414356-1.681061c4.471452 0.187733 10.086367-0.665598 14.156753-0.093866 2.06506 0.290132-0.452265 4.138653 2.602659 3.447455-1.297062-5.606382 7.261843-2.892791 12.219693-3.711988 8.567439-1.407995 14.865018-6.126913 22.988725-8.02984-5.939181 4.625052-10.316766 16.733812-8.174907 24.098054 0.366932 1.254396 6.289046 7.185043 7.543442 7.543442 16.691145 4.872517 44.76572-13.559422 40.592934-32.213228-1.93706-8.635705-12.296493-10.854364-19.839935-9.489035 5.99038-6.374379 14.813818-12.36476 20.155667-19.251137 3.165856-4.07892 5.828248-9.736501 8.354106-14.284753l10.060767 3.353589c1.049597-0.90453-6.587712-9.463436-6.707178-10.052234-0.0768-0.392532 1.629861-1.638395 0.844797-3.327989-1.681061-3.643721-6.271979-8.575972-7.287443-12.876758-5.171183-22.007395-3.822921-44.936386 3.882654-65.996584 1.271463-3.464522 5.299183-5.077317 2.551459-8.354106l11.733295-20.121534c30.677233-4.607985 54.195023-15.923148 72.097897-41.915596v0.870397c4.13012 3.003723 9.403703-0.870397 12.586625-0.870397 1.902927 0 3.694921 1.88586 5.853848 1.672528z m-37.410011 28.825506c-13.687422 2.363726-36.58228 21.316197-28.859639 36.60788 5.905047 11.690628 25.983915 5.068783 34.372154-0.921597 17.42501-12.433026 20.4458-40.166268-5.503982-35.686283z" fill="#743A96" p-id="2360"></path><path d="M361.863348 701.514503c0.341332-0.264532 1.501862 0.196266 2.24426-0.324266 3.498655-2.431992 14.37862-9.105037 17.877274-9.736502 7.543442-1.365329 17.902875 0.861864 19.839935 9.489036 4.18132 18.662339-23.901788 37.085745-40.592933 32.213228-1.254396-0.366932-7.17651-6.297579-7.543442-7.543442-2.14186-7.364243 2.235726-19.473003 8.174906-24.098054z" fill="#A970C0" p-id="2361"></path><path d="M413.839711 560.672297c-0.665598-6.033047-6.297579-10.581299-8.362639-15.957281-1.373862-3.575455 2.901324-2.449059 5.00905-2.491725 5.759981-0.1024 9.173303-1.143463 13.414356-1.672528 0.546132-0.068266 1.13493 0.085333 1.672528 0l-11.733295 20.121534z" fill="#F5F3F8" p-id="2362"></path><path d="M516.11991 500.316228c-2.158926 0.213333-3.95092-1.672528-5.853848-1.672528-3.17439 0-8.456506 3.865587-12.586625 0.870397v-0.870397c2.884257-4.18132 5.068783-8.763705 8.140773-12.825558l0.247466-2.261326c0.187733 0.964264 8.883171 15.086884 10.060767 16.767945z" fill="#F0E6F2" p-id="2363"></path><path d="M413.839711 651.210667c0.119466 0.588798 7.756775 9.156237 6.707178 10.052234l-10.060767-3.353589c1.203196-2.16746 2.278393-4.471452 3.353589-6.707178z" fill="#F0E3F3" p-id="2364"></path><path d="M618.391575 332.645311c29.388704 4.974917 51.182766 18.030874 68.744308 41.915596-2.909857 1.399462-1.655461 6.476779-1.672528 9.224503-0.119466 15.906081-0.861864 31.274564-5.384516 46.591847-16.989811 57.582745-85.819452 99.063142-144.34086 76.296284-4.198386-1.629861-11.758895-7.133843-15.709815-7.816508-1.774928-0.307199-3.054923 1.365329-3.916788 1.450662-1.177596-1.681061-9.873034-15.795148-10.060767-16.767945-0.0768-0.401065 1.305596-1.612795 1.194663-2.517325-0.162133-1.271463-4.232519-4.394652-5.444249-7.483709-9.821835-24.994051-5.401582-57.736344 4.573852-81.987998l2.739191-0.494932c0.87893-0.853331 0.0512-2.380792 0.290132-3.089057 1.638395-4.744518 3.891187-10.734898 5.026117-15.086884-0.255999 7.790908 3.874121-1.288529 5.000517-2.551458 20.275134-22.681526 38.928939-33.71509 69.29044-37.964675 0.750931-0.1024 1.023997-1.390929 1.160529-1.399463 9.26717-1.05813 19.473003 0.145066 28.50124 1.672528z m-30.480967 32.153494c-15.948748-10.103434-34.69642 0.665598-44.083056 14.839418-2.773324 4.189853-4.010654 12.36476-1.766394 16.759412 5.930647 11.622362 23.705522 6.664512 32.691093 0.750931 4.198386-2.756258 12.859691-11.144497 14.37862-15.803682 1.715194-5.265049 1.151996-11.673562-1.228796-16.554612z" fill="#743A95" p-id="2365"></path><path d="M587.910608 364.798805c2.380792 4.881051 2.94399 11.28103 1.228796 16.554613-1.518928 4.650651-10.180233 13.047424-14.37862 15.803681-8.985571 5.913581-26.768979 10.871431-32.691093-0.750931-2.244259-4.403186-1.00693-12.578092 1.766395-16.759411 9.378103-14.17382 28.134308-24.942852 44.083055-14.839418z" fill="#A66FBF" p-id="2366"></path><path d="M328.327458 500.316228c3.490122 1.595728 4.642118 5.427182 6.673045 7.577575 4.437319 4.710385 13.499689 13.610622 18.500206 16.716746 5.273583 3.268256 15.470883 8.294373 21.29913 10.555698 7.927441 3.07199 17.160477 5.777048 25.63405 5.393049 0.1024 3.037857-0.238933 6.135447 0.025599 9.181837 1.237329 13.951954-0.042667 30.830832-3.703454 44.996119-8.217573 31.812162-36.351881 64.955521-66.721915 77.47388-29.158305 12.014894-58.845674 12.509826-87.329847-1.578662-1.689594-0.836264-5.555182-4.642118-6.587712-0.95573-25.130584-31.965762-28.876705-73.480293-11.733295-110.659904 1.16053-2.517325 1.493328-4.778651 2.483192-6.741311 2.670925-5.307716 16.930078-20.735932 21.802595-25.190318 3.114656-2.850124 6.382912-4.488519 9.847435-6.869311 21.623396-14.822351 34.013755-19.38767 60.603535-19.933801 1.621328-0.034133 3.797321-1.715194 4.189852-1.629861 0.093866 0.017067 0.273066 1.220263 1.177597 1.416528 1.407995 0.298666 3.438922 0.0768 3.84852 0.264533z m-37.358811 28.799906c-10.555699 1.510395-25.463383 10.581299-30.071368 20.300733-2.815991 5.947714-4.087453 10.649565-0.998397 16.810612 6.007447 11.980761 26.35938 4.923717 34.824419-1.433595 7.500775-5.640515 15.35995-16.699679 13.201024-26.478847-1.425062-6.442646-11.135964-10.026634-16.955678-9.198903z" fill="#743A96" p-id="2367"></path><path d="M494.317314 371.207318c3.97652 0.503465 2.636791 5.145583 3.677855 6.459712 1.757861 2.210126 4.471452 3.729054 7.313043 8.567438 1.715194 2.91839-0.776531 4.906651 4.095986 1.740795-0.247466 0.708264 0.580265 2.235726-0.290132 3.089056l-2.739191 0.494932c-9.975434 24.251654-14.395686 56.993947-4.573852 81.987998 1.211729 3.080523 5.282116 6.212246 5.444249 7.483709 0.119466 0.90453-1.271463 2.11626-1.194663 2.517325l-0.247466 2.261326c-3.07199 4.061853-5.256516 8.644238-8.140773 12.825558-17.902875 25.992448-41.420664 37.307611-72.097897 41.915596-0.546132 0.085333-1.126396-0.068266-1.672528 0-4.428785 0.341332-9.343969-0.913064-13.414356 0.802131v0.870397c-2.099193 0.042667-6.374379-1.092263-5.00905 2.491725 2.056527 5.375982 7.697041 9.924234 8.362639 15.957281 2.747724 3.268256-1.288529 4.889584-2.551458 8.354106-7.705575 21.051664-9.06237 43.980656-3.882654 65.996584 1.015463 4.300786 5.597848 9.224503 7.287443 12.876758 0.776531 1.689594-0.921597 2.935457-0.844798 3.327989-1.075196 2.235726-2.150393 4.539718-3.353589 6.707178-2.525858 4.548252-5.18825 10.205833-8.354106 14.284753-5.341849 6.877844-14.165287 12.876758-20.155667 19.251137-3.498655 0.631465-14.37862 7.313043-17.877275 9.736502-0.742398 0.511998-1.902927 0.059733-2.244259 0.324265-8.123707 1.902927-14.421286 6.613312-22.988725 8.029841-4.95785 0.819197-13.525289-1.894394-12.219693 3.711987-3.054923 0.691198-0.537598-3.157323-2.602658-3.447455-4.070387-0.571731-9.685302 0.281599-14.156754 0.093866-31.59883-1.348262-55.295819-16.742345-73.770425-40.243068 1.03253-3.677855 4.898117 0.128 6.587712 0.95573 28.484173 14.088487 58.171543 13.593555 87.329847 1.578662 30.378567-12.509826 58.504342-45.653184 66.721915-77.47388 3.660788-14.165287 4.940784-31.044165 3.703454-44.996119-0.273066-3.04639 0.0768-6.14398-0.025599-9.181837-8.465039 0.383999-17.706609-2.312526-25.63405-5.393049-5.828248-2.261326-16.025548-7.287443-21.29913-10.555698-5.000517-3.09759-14.062887-12.006361-18.500206-16.716746-2.030927-2.150393-3.182923-5.981847-6.673045-7.577575v-1.672528c0.068266 0 0.358399-1.143463 0.819197-1.03253 4.898117 1.16053 6.14398 3.07199 9.710902 4.753051 30.702833 14.421286 60.808334 12.893824 90.572503-2.380792 50.107569-25.710849 69.358706-73.412026 64.887254-128.767578z" fill="#5D2579" p-id="2368"></path><path d="M290.968647 529.116134c5.819714-0.827731 15.530616 2.756258 16.955678 9.198903 2.158926 9.779168-5.700248 20.838332-13.201024 26.478847-8.465039 6.357313-28.816972 13.414356-34.824419 1.433595-3.089057-6.161046-1.817594-10.862898 0.998397-16.810612 4.607985-9.719435 19.515669-18.790338 30.071368-20.300733z" fill="#A76FBD" p-id="2369"></path><path d="M378.068095 361.419616c28.296441-6.203713 27.997775 18.662339 9.813301 33.288425-15.035684 12.091694-42.299595 12.714625-35.319351-11.844228 2.329592-8.200506 17.459143-19.677802 25.50605-21.444197z" fill="#A76CBE" p-id="2370"></path><path d="M328.327458 498.635167v1.672528c-0.409599-0.187733-2.440525 0.034133-3.848521-0.264533-0.90453-0.196266-1.092263-1.390929-1.177596-1.416528l1.672528-1.672528c1.373862-0.187733 1.96266 1.706661 3.353589 1.672528z" fill="#E0BEE8" p-id="2371"></path><path d="M423.900478 540.550763c-4.241053 0.537598-7.645842 1.570128-13.414356 1.672528v-0.870397c4.070387-1.715194 8.985571-0.460798 13.414356-0.802131z" fill="#743A96" p-id="2372"></path></svg>