<?xml version="1.0" standalone="no"?><!DOCTYPE svg PUBLIC "-//W3C//DTD SVG 1.1//EN" "http://www.w3.org/Graphics/SVG/1.1/DTD/svg11.dtd"><svg t="1774230537765" class="icon" viewBox="0 0 1024 1024" version="1.1" xmlns="http://www.w3.org/2000/svg" p-id="2174" xmlns:xlink="http://www.w3.org/1999/xlink" width="200" height="200"><path d="M495.162334 281.462672c13.448495 1.757862 18.440481 1.484796 31.931644 0 76.466984-8.396776 129.569767-32.392442 209.552474-19.942344l9.941306 15.001557c151.577172 157.797954 103.346908 464.92882-52.804118 603.364696-105.753301 93.755468-256.460076 104.89997-391.158362 93.670135l-31.948709-6.084249-9.002642 6.118383c-68.479807-55.500643-126.745242-145.561189-158.676885-227.361491-63.999819-163.933404-62.037158-408.506579 136.157482-474.306927 96.631194-32.076709 162.86674-2.602659 256.016344 9.54024z m137.702011 33.919904c-15.726889 2.602659-31.266045 7.185046-46.967333 9.898638-53.503849 9.241574-102.177845 7.628778-155.528094-1.996794-12.987697-2.34666-25.804727-6.604781-38.98869-7.901844 3.746123 5.521051 11.485834 10.111971 17.271418 13.644761 65.766214 40.183353 139.408673 39.01429 205.635685 0.699732 6.203716-3.592523 14.489559-8.567442 18.568481-14.344493z m-371.762149 26.350859c-55.304377 6.690114-118.339932 85.077093-113.271147 140.270537 1.484796 16.179154 14.011694 34.594036 31.052712 36.787096 39.253222 5.034652 77.781114-25.685261 100.786916-54.775312 19.925277-25.198862 44.595074-69.333137 29.491116-101.358647-8.951441-18.986613-28.714586-23.261801-48.059597-20.915141z" fill="#EA5B50" p-id="2175"></path><path d="M261.665394 973.59085l9.002641-6.118383 31.94871 6.084249c134.698286 11.229835 285.40506 0.085333 391.158362-93.670135 156.151026-138.435876 204.381289-445.566741 52.804117-603.364696l-9.941305-15.001557c251.519289 39.142289 257.509673 324.035351 172.662979 512.647085-41.480416 92.202406-143.982527 239.45319-253.533151 249.249429-56.413707 5.043186-104.268505-24.405264-161.697676-19.993543-24.65273 1.894395-51.029189 14.088494-75.792853 17.996749-61.806759 9.770639-109.525024-9.659706-156.620357-47.829198z" fill="#DA473C" p-id="2176"></path><path d="M527.093978 219.630313c-0.162133-1.971194 0.187733-4.019189 0-5.98185L842.41682 4.215455c-1.390929 27.323656-8.994108 56.243041-18.935413 81.800302-23.534867 60.475562-73.13046 110.608754-134.160688 133.18789-50.867056 18.82448-111.521818 20.966341-162.226741 0.426666z" fill="#6D9E46" p-id="2177"></path><path d="M842.41682 4.215455L527.093978 213.648463c-0.477865-5.009053-3.387724-10.120505-1.996795-15.957288l8.40531-26.504459C577.628235 48.435063 703.682279-12.637831 829.480323 2.184527c3.421857 0.401066 12.339165-1.527462 12.927964 2.030928z" fill="#85B650" p-id="2178"></path><path d="M525.097183 197.691175c-1.390929 5.836784 1.518929 10.948236 1.996795 15.957288 0.187733 1.962661-0.162133 4.010655 0 5.98185 1.117864 13.806894 2.909858 29.132718 2.082127 42.973745-0.349866 5.845317-3.652256 12.151432-2.082127 18.858614-13.491162 1.484796-18.483148 1.757862-31.931644 0-3.916789-39.06549-13.107163-79.829108-32.238842-114.380477-10.282638-18.577014-23.739666-35.2511-37.614827-51.165722 1.689595-3.498657 7.662912-1.902928 10.973836-1.996795 19.90821-0.546132 34.073504-5.009053 46.941734-20.906607 2.44906-3.029325 2.824525-7.03998 5.947716-9.011175 17.646883 28.040454 25.676727 66.696345 33.860171 98.807188l2.065061 14.890624z" fill="#704724" p-id="2179"></path><path d="M489.171951 84.001896c-3.123191 1.971194-3.498657 5.98185-5.947716 9.011175-12.859697 15.889022-27.033524 20.351943-46.941734 20.906607-3.310924 0.093866-9.28424-1.501862-10.973836 1.996795-0.563198-0.648532-3.054925-0.682665-3.746123-3.208525-2.201594-8.046911 3.225591-18.87568 8.755176-24.695397 5.299185-5.572251 16.853286-11.588234 24.345531-13.567961 8.738109-2.303993 21.128474-2.858659 29.235117 1.851728 5.316252 3.080525 3.754656 5.290652 5.273585 7.697045z" fill="#87552B" p-id="2180"></path><path d="M261.102196 341.733435c19.345012-2.338127 39.108156 1.928528 48.059597 20.915141 15.103957 32.02551-9.56584 76.159785-29.491116 101.358647-23.005802 29.098584-61.533693 59.809964-100.786916 54.775311-17.032485-2.184527-29.567916-20.607942-31.052712-36.787096-5.068786-55.193444 57.975303-133.580423 113.271147-140.270537z" fill="#F1806F" p-id="2181"></path><path d="M632.864345 315.382576c-4.078922 5.77705-12.364765 10.75197-18.56848 14.344493-66.227013 38.314558-139.869472 39.483622-205.635686-0.699732-5.785584-3.541323-13.525295-8.12371-17.271418-13.644761 13.183963 1.305596 26.000993 5.563718 38.98869 7.901844 53.350249 9.625573 102.024245 11.229835 155.528094 1.996794 15.701289-2.713592 31.240445-7.295979 46.967334-9.898638z" fill="#DC493F" p-id="2182"></path></svg>