<?xml version="1.0" standalone="no"?><!DOCTYPE svg PUBLIC "-//W3C//DTD SVG 1.1//EN" "http://www.w3.org/Graphics/SVG/1.1/DTD/svg11.dtd"><svg t="1774231239755" class="icon" viewBox="0 0 1024 1024" version="1.1" xmlns="http://www.w3.org/2000/svg" p-id="2831" xmlns:xlink="http://www.w3.org/1999/xlink" width="200" height="200"><path d="M214.826667 896.341333c-20.437333 0-37.845333-16.725333-37.973334-36.48v-0.085333c2.048-9.770667 20.309333-95.872 20.309334-119.253333v-201.258667h-16.213334c-10.154667 0-21.248-4.266667-29.781333-11.306667-8.789333-7.338667-13.824-16.853333-13.824-26.112V360.021333c0-19.2 15.786667-33.706667 36.778667-33.706666h221.013333V165.12a37.12 37.12 0 0 1 36.778667-36.778667h159.104a36.864 36.864 0 0 1 36.821333 36.821334v161.152h220.928c10.24 0 19.626667 3.370667 26.282667 9.472a32.682667 32.682667 0 0 1 10.538666 24.874666v135.637334c0 20.352-22.869333 43.605333-42.965333 43.605333h-16.853333v200.618667c0 23.381333 18.261333 109.482667 20.352 119.253333v0.085333c-0.170667 20.096-17.237333 36.48-37.973334 36.48H214.784z m572.458666-53.888l-0.64-3.157333c-6.656-33.962667-14.72-78.506667-15.36-98.218667v-201.173333H250.453333v200.618667c0 15.701333-4.949333 48.938667-14.762666 98.773333l-0.597334 3.157333h120.576V718.933333c0-7.338667 10.325333-15.232 26.965334-15.232s26.922667 7.936 26.922666 15.232v123.52h84.906667V718.933333c0-7.338667 10.24-15.232 26.88-15.232 14.378667 0 26.965333 7.125333 26.965333 15.232v123.52h84.906667V718.933333c0-7.338667 10.24-15.232 26.88-15.232s26.965333 7.936 26.965333 15.232v123.52h100.266667z m44.416-357.077333v-2.645333l-0.042666-49.664a6037.333333 6037.333333 0 0 0-0.341334-45.397334l-0.085333-3.242666c-0.085333-1.536-0.426667-3.626667-2.773333-3.626667h-255.146667V182.186667h-124.330667v198.570666H191.189333v104.576h640.554667z" fill="#000000" p-id="2832"></path></svg>