<?xml version="1.0" standalone="no"?><!DOCTYPE svg PUBLIC "-//W3C//DTD SVG 1.1//EN" "http://www.w3.org/Graphics/SVG/1.1/DTD/svg11.dtd"><svg t="1774231259675" class="icon" viewBox="0 0 1024 1024" version="1.1" xmlns="http://www.w3.org/2000/svg" p-id="4089" xmlns:xlink="http://www.w3.org/1999/xlink" width="200" height="200"><path d="M818.602667 409.6c-0.426667 1.066667 22.613333-282.026667-307.072-281.216 0 0-305.792-26.112-307.072 281.216-50.218667 0.341333-76.8 51.626667-76.8 102.4v127.786667c0 50.986667 26.154667 102.4 76.8 102.4h51.2c50.517333 0 76.714667-51.413333 76.714666-102.4v-127.957334c0-50.986667-26.112-102.357333-76.757333-102.357333 1.578667-232.448 255.914667-229.888 255.914667-229.888 132.181333-0.810667 254.165333 73.173333 255.914666 230.058667-50.645333 0-76.8 51.2-76.8 102.4v127.786666c0 48.042667 30.208 97.877333 76.8 102.4-43.136 72.021333-121.002667 102.314667-204.714666 102.314667a25.6 25.6 0 0 0 0 51.2c55.594667 0 105.472 2.986667 153.514666-25.6 100.949333-60.117333 102.4-127.829333 102.4-127.829333 50.602667 0 76.757333-51.370667 76.757334-102.357334v-128.128c0-50.346667-27.008-101.248-76.8-102.229333zM255.616 460.8c20.821333 0 25.6 30.122667 25.6 51.2v127.786667c0 20.992-4.778667 51.2-25.6 51.2h-51.2c-20.821333 0-25.6-30.165333-25.6-51.2v-127.957334c0-20.992 4.778667-51.2 25.6-51.2h51.2v0.170667z m588.586667 178.944c0 20.992-4.778667 51.2-25.6 51.2h-51.2c-20.821333 0-25.6-30.165333-25.6-51.2v-127.914667c0-20.992 4.778667-51.2 25.6-51.2h51.2c20.821333 0 25.6 30.165333 25.6 51.2V639.744z" fill="#000000" p-id="4090"></path></svg>