<?xml version="1.0" standalone="no"?><!DOCTYPE svg PUBLIC "-//W3C//DTD SVG 1.1//EN" "http://www.w3.org/Graphics/SVG/1.1/DTD/svg11.dtd"><svg t="1774231230915" class="icon" viewBox="0 0 1024 1024" version="1.1" xmlns="http://www.w3.org/2000/svg" p-id="2358" xmlns:xlink="http://www.w3.org/1999/xlink" width="200" height="200"><path d="M775.466667 192.853333a164.266667 164.266667 0 0 0-232.277334 0L128.512 607.573333a113.066667 113.066667 0 0 0-33.109333 81.066667l1.066666 105.130667a78.933333 78.933333 0 0 0 78.165334 78.122666l105.130666 1.066667a113.066667 113.066667 0 0 0 81.066667-33.109333l414.634667-414.634667a164.266667 164.266667 0 0 0 0-232.32z m-180.992 51.285334a91.733333 91.733333 0 1 1 129.706666 129.706666l-414.634666 414.72a40.533333 40.533333 0 0 1-29.056 11.818667l-105.130667-1.066667a6.4 6.4 0 0 1-6.357333-6.314666l-1.066667-105.130667a40.533333 40.533333 0 0 1 11.904-29.056l414.634667-414.677333z" fill="#000000" p-id="2359"></path><path d="M710.4 640c0-20.053333 16.256-36.266667 36.266667-36.266667H896a36.266667 36.266667 0 0 1 0 72.533334h-149.333333a36.266667 36.266667 0 0 1-36.266667-36.266667zM518.4 832c0-20.053333 16.256-36.266667 36.266667-36.266667h341.333333a36.266667 36.266667 0 1 1 0 72.533334h-341.333333a36.266667 36.266667 0 0 1-36.266667-36.266667z" fill="#000000" p-id="2360"></path></svg>