<?xml version="1.0" standalone="no"?><!DOCTYPE svg PUBLIC "-//W3C//DTD SVG 1.1//EN" "http://www.w3.org/Graphics/SVG/1.1/DTD/svg11.dtd"><svg t="1775616225228" class="icon" viewBox="0 0 1619 1024" version="1.1" xmlns="http://www.w3.org/2000/svg" p-id="1737" xmlns:xlink="http://www.w3.org/1999/xlink" width="316.2109375" height="200"><path d="M170.439001 699.830899h21.127877c5.749966 0.124999 10.24994 4.750972 10.249939 10.501939 0 5.749966-4.499974 10.500938-10.249939 10.500938H170.439001v21.127877c-0.124999 5.624967-4.749972 10.24994-10.500938 10.24994-2.749984 0-5.375969-0.999994-7.375957-2.874984a9.927942 9.927942 0 0 1-3.124982-7.249957v-21.127876H128.309248c-5.749966-0.124999-10.25094-4.749972-10.25094-10.500939 0-5.750966 4.499974-10.501938 10.24994-10.501938h21.128876v-21.126877c0.124999-5.749966 4.749972-10.25094 10.499939-10.250939 5.751966 0 10.501938 4.499974 10.501938 10.249939v21.002877z m1378.784922-83.50951v-21.126876c0-2.749984-1.124993-5.375969-3.124982-7.250958s-4.625973-2.999982-7.375957-2.875983c-5.625967 0-10.375939 4.500974-10.500938 10.25194v21.001877h-21.127877c-2.749984 0-5.374969 1.124993-7.249957 3.125981s-3.000982 4.624973-2.875983 7.375957c0 5.624967 4.625973 10.499938 10.25094 10.499939h21.127876v21.127876c0 5.750966 4.624973 10.25194 10.500938 10.25194 5.749966 0 10.375939-4.499974 10.500939-10.25194v-21.126876h21.127876c5.749966 0 10.25094-4.625973 10.25094-10.500939 0-5.625967-4.499974-10.376939-10.25094-10.501938h-21.252875zM790.386369 960.986369H264.44845c-5.499968 0-10.875936-2.249987-14.750913-6.124964-3.875977-3.875977-6.125964-9.251946-6.125964-14.751913 0-11.501933 9.500944-20.877878 20.877877-20.877878h94.760445c-7.375957-12.625926-11.125935-27.002842-11.125935-41.629756V271.531409c0-22.12787 8.875948-43.379746 24.502857-59.131654 15.626908-15.626908 37.003783-24.377857 59.131653-24.377857h62.632633V167.019021c0-22.12687 8.875948-43.379746 24.502857-59.131653A83.959508 83.959508 0 0 1 577.986613 83.509511h501.183064c22.12787 0 43.504745 8.750949 59.131653 24.377857 15.751908 15.626908 24.502856 36.879784 24.502857 59.131653v606.070449c0 15.126911-3.999977 29.378828-11.125935 41.629756h115.513323c11.500933 0 20.877878 9.251946 20.877878 20.877878 0 11.500933-9.251946 20.877878-20.877878 20.877878h-250.654531v21.001877c0 15.126911-3.999977 29.378828-11.125935 41.629756h11.250934c11.501933 0 20.877878 9.250946 20.877878 20.877877 0 11.500933-9.500944 20.876878-20.877878 20.876878H906.774687c9.500944 16.001906 7.499956 37.004783-6.375963 50.881702-7.875954 7.874954-18.501892 12.250928-29.502827 12.250928-11.126935 0-21.752873-4.375974-29.503827-12.250928l-51.005701-50.756703z m76.383552-41.754755h66.382611c23.002865 0 41.629756-18.626891 41.629756-41.879755V270.531415c0-22.627867-18.001895-40.754761-40.379763-40.754761H430.09448c-22.25287 0-40.379763 18.251893-40.379763 40.754761v606.820444c0 23.127864 18.75189 41.879755 41.629756 41.879755H748.505614l-10.751937-10.750937c-10.625938-10.500938-14.750914-26.002848-10.875936-40.379764l-19.751884-19.751884c-61.38264 45.754732-147.767134 36.378787-197.898841-21.627873-50.129706-57.881661-47.004725-144.642152 7.000959-198.898835 54.256682-54.380681 141.267172-57.630662 199.273833-7.374956 58.00666 50.255706 67.382605 136.890198 21.251875 198.272838l19.752884 19.751884c14.375916-3.874977 29.877825 0.249999 40.379764 10.876936l69.88259 69.882591z m149.767123-104.512388h62.882631c23.002865-0.124999 41.629756-18.75189 41.629756-41.754755V167.144021c0-23.126864-18.626891-41.754755-41.629756-41.754756H577.611616c-23.002865 0.124999-41.504757 18.75289-41.629757 41.754756v20.877877h396.795676c22.12787 0 43.504745 8.750949 59.131653 24.377857 15.751908 15.626908 24.502856 36.879784 24.502856 59.131654v543.187817zM280.201358 47.005725h31.129818c8.749949 0 15.875907 6.999959 15.875907 15.626908s-7.125958 15.626908-15.876907 15.626908h-31.128818v31.127818c0 8.750949-6.999959 15.876907-15.625908 15.876907-4.125976 0-8.125952-1.74999-11.126935-4.749972-2.999982-2.999982-4.624973-7.000959-4.499974-11.126935V78.384541h-31.129817c-4.249975 0-8.249952-1.62599-11.249934-4.500974-2.999982-2.999982-4.625973-6.999959-4.625973-11.125935 0-8.625949 7.125958-15.626908 15.876907-15.626908h31.128817V15.876907c0-8.750949 6.999959-15.876907 15.626909-15.876907s15.625908 7.125958 15.625908 15.876907v31.128818zM34.672797 940.109492c0-11.501933 9.501944-20.877878 20.877878-20.877878h125.514264c11.501933 0 20.877878 9.250946 20.877878 20.877878 0 11.500933-9.500944 20.876878-20.877878 20.876877H55.550675c-5.499968 0-10.875936-2.249987-14.751914-6.124964-3.999977-3.875977-6.124964-9.251946-6.124964-14.751913z m658.82614-135.016209c40.755761-40.754761 40.755761-106.887374 0-147.767135-40.753761-40.754761-106.886374-40.754761-147.766135 0-40.754761 40.754761-40.754761 106.887374 0 147.767135 40.87976 40.754761 107.012373 40.754761 147.767135 0z m-220.148711-491.682119c0-11.500933 9.374945-20.876878 20.876878-20.876878h229.776654c11.500933 0 20.876878 9.375945 20.876877 20.876878s-9.375945 20.877878-20.876877 20.877877H494.227104c-5.500968 0-10.876936-2.124988-14.751913-6.125964-3.875977-3.874977-6.125964-9.250946-6.125965-14.751913z m0 104.387388c0-11.500933 9.249946-20.877878 20.751879-20.877878h334.53804c11.501933 0 20.752878 9.251946 20.752878 20.877878 0 11.500933-9.250946 20.877878-20.752878 20.877878h-334.53804c-5.500968 0-10.876936-2.249987-14.751914-6.125964-3.875977-3.875977-5.999965-9.250946-5.999965-14.751914z m0 104.512388c0-11.501933 9.374945-20.877878 20.876878-20.877878h146.266143c11.501933 0 20.877878 9.250946 20.877878 20.877878 0 11.500933-9.375945 20.876878-20.877878 20.876877H494.227104c-5.500968 0-10.876936-2.124988-14.751913-6.124964-3.875977-3.875977-6.125964-9.251946-6.125965-14.751913zM76.427552 396.921674c-22.377869 0-43.129747-12.00193-54.256682-31.379816-11.250934-19.376886-11.250934-43.254747 0-62.631633s31.878813-31.378816 54.256682-31.378816c34.628797 0 62.631633 28.003836 62.631633 62.632633 0.124999 34.753796-28.002836 62.756632-62.631633 62.756632z m0-31.379816c11.250934 0 21.501874-5.999965 27.127841-15.625908 5.625967-9.750943 5.625967-21.627873 0-31.379816-5.625967-9.749943-16.001906-15.625908-27.127841-15.625909-17.251899 0-31.379816 14.001918-31.379816 31.378816 0.125999 17.251899 14.127917 31.253817 31.379816 31.253817z m1295.275411-94.009449c-22.377869 0-43.129747-12.00193-54.256682-31.379816-11.250934-19.376886-11.250934-43.254747 0-62.631633s31.878813-31.379816 54.256682-31.379816c34.628797 0 62.631633 28.003836 62.631633 62.632633 0 34.754796-28.002836 62.757632-62.631633 62.757632z m0-31.254817c11.250934 0 21.501874-5.999965 27.127841-15.626908 5.625967-9.749943 5.625967-21.626873 0-31.377816-5.625967-9.751943-16.001906-15.626908-27.127841-15.626909-17.251899 0-31.379816 14.000918-31.379816 31.378816 0 17.1269 14.127917 31.252817 31.379816 31.252817z m0 0" fill="#2c2c2c" p-id="1738"></path></svg>