<?xml version="1.0" standalone="no"?><!DOCTYPE svg PUBLIC "-//W3C//DTD SVG 1.1//EN" "http://www.w3.org/Graphics/SVG/1.1/DTD/svg11.dtd"><svg t="1774231225571" class="icon" viewBox="0 0 1024 1024" version="1.1" xmlns="http://www.w3.org/2000/svg" p-id="2042" xmlns:xlink="http://www.w3.org/1999/xlink" width="200" height="200"><path d="M221.184 138.666667C101.973333 138.666667 41.770667 282.24 125.312 367.232l123.008 125.269333c9.045333 9.173333 14.08 21.546667 14.08 34.389334v212.053333a100.266667 100.266667 0 0 0 42.752 82.133333l85.333333 59.733334c66.474667 46.506667 157.781333-1.024 157.781334-82.133334v-269.397333c0-12.672 4.906667-24.874667 13.653333-34.005333l123.989333-129.109334c82.005333-85.461333 21.461333-227.498667-96.938666-227.498666h-367.786667zM177.024 316.416C138.666667 277.333333 166.4 211.2 221.184 211.2h367.786667c54.485333 0 82.346667 65.408 44.629333 104.704l-123.989333 129.152a121.6 121.6 0 0 0-33.877334 84.224v269.397333a27.733333 27.733333 0 0 1-43.648 22.698667l-85.333333-59.733333a27.733333 27.733333 0 0 1-11.818667-22.698667v-212.053333a121.6 121.6 0 0 0-34.858666-85.205334L177.066667 316.416z" fill="#000000" p-id="2043"></path><path d="M689.066667 507.733333c0-20.053333 16.256-36.266667 36.266666-36.266666h170.666667a36.266667 36.266667 0 0 1 0 72.533333h-170.666667a36.266667 36.266667 0 0 1-36.266666-36.266667zM689.066667 678.4c0-20.053333 16.256-36.266667 36.266666-36.266667h170.666667a36.266667 36.266667 0 0 1 0 72.533334h-170.666667a36.266667 36.266667 0 0 1-36.266666-36.266667zM689.066667 849.066667c0-20.053333 16.256-36.266667 36.266666-36.266667h170.666667a36.266667 36.266667 0 0 1 0 72.533333h-170.666667a36.266667 36.266667 0 0 1-36.266666-36.266666z" fill="#000000" p-id="2044"></path></svg>