<?xml version="1.0" standalone="no"?><!DOCTYPE svg PUBLIC "-//W3C//DTD SVG 1.1//EN" "http://www.w3.org/Graphics/SVG/1.1/DTD/svg11.dtd"><svg t="1774231263578" class="icon" viewBox="0 0 1024 1024" version="1.1" xmlns="http://www.w3.org/2000/svg" p-id="4246" xmlns:xlink="http://www.w3.org/1999/xlink" width="200" height="200"><path d="M200.746667 436.650667V243.242667L394.069333 243.2l0.085334 193.365333-193.408 0.085334z m193.408-257.834667H200.661333A64.426667 64.426667 0 0 0 136.32 243.2v193.450667a64.426667 64.426667 0 0 0 64.341333 64.384h193.493334a64.426667 64.426667 0 0 0 64.341333-64.384V243.2A64.512 64.512 0 0 0 394.154667 178.773333zM200.746667 823.296v-193.365333l193.322666-0.085334 0.085334 193.408-193.408 0.042667z m193.408-257.834667H200.661333a64.426667 64.426667 0 0 0-64.341333 64.384v193.450667a64.426667 64.426667 0 0 0 64.341333 64.384h193.493334a64.426667 64.426667 0 0 0 64.341333-64.384v-193.450667a64.512 64.512 0 0 0-64.341333-64.384z m193.152-128.810666V243.242667l193.322666-0.042667 0.085334 193.365333-193.408 0.085334z m193.408-257.834667h-193.493334A64.426667 64.426667 0 0 0 522.88 243.2v193.450667a64.469333 64.469333 0 0 0 64.341333 64.384h193.493334a64.469333 64.469333 0 0 0 64.384-64.384V243.2a64.426667 64.426667 0 0 0-64.384-64.384z m-96.725334 451.072a32.213333 32.213333 0 0 0-32.213333 32.256v193.28a32.213333 32.213333 0 1 0 64.426667 0v-193.28a32.213333 32.213333 0 0 0-32.213334-32.213333z m-128.896 0a32.213333 32.213333 0 0 0-32.213333 32.256v193.28a32.213333 32.213333 0 1 0 64.426667 0v-193.28a32.213333 32.213333 0 0 0-32.213334-32.213333z m257.749334-64.426667a32.213333 32.213333 0 0 0-32.213334 32.213334v257.792a32.213333 32.213333 0 1 0 64.426667 0v-257.792a32.213333 32.213333 0 0 0-32.213333-32.213334z" fill="#000000" p-id="4247"></path></svg>