<?xml version="1.0" standalone="no"?><!DOCTYPE svg PUBLIC "-//W3C//DTD SVG 1.1//EN" "http://www.w3.org/Graphics/SVG/1.1/DTD/svg11.dtd"><svg t="1774231215911" class="icon" viewBox="0 0 1024 1024" version="1.1" xmlns="http://www.w3.org/2000/svg" p-id="1729" xmlns:xlink="http://www.w3.org/1999/xlink" width="200" height="200"><path d="M696.106667 136.746667a36.266667 36.266667 0 1 0-26.88 67.370666c43.178667 17.237333 84.949333 48.042667 116.864 75.904l0.896 0.768c-79.573333 15.914667-147.242667 43.008-201.002667 81.877334-70.314667 50.858667-115.029333 120.704-130.986667 206.72a36.266667 36.266667 0 1 0 71.296 13.226666c12.544-67.498667 46.805333-121.130667 102.186667-161.194666 56.192-40.618667 135.765333-68.394667 239.530667-79.616a36.266667 36.266667 0 0 0 23.466666-59.904l-0.128-0.128-0.256-0.298667-0.853333-0.981333a560.853333 560.853333 0 0 0-14.762667-15.744 718.378667 718.378667 0 0 0-41.685333-39.381334c-34.474667-30.08-83.456-66.986667-137.685333-88.618666z" fill="#000000" p-id="1730"></path><path d="M206.933333 341.333333A134.4 134.4 0 0 1 341.333333 206.933333h85.333334a36.266667 36.266667 0 0 0 0-72.533333H341.333333A206.933333 206.933333 0 0 0 134.4 341.333333v341.333334A206.933333 206.933333 0 0 0 341.333333 889.6h341.333334A206.933333 206.933333 0 0 0 889.6 682.666667v-149.333334a36.266667 36.266667 0 0 0-72.533333 0V682.666667A134.4 134.4 0 0 1 682.666667 817.066667H341.333333A134.4 134.4 0 0 1 206.933333 682.666667V341.333333z" fill="#000000" p-id="1731"></path></svg>