<svg width="25" height="21" viewBox="0 0 25 21" fill="none" xmlns="http://www.w3.org/2000/svg">
<path d="M24.2667 4.95833L20.7667 0.466667C20.5333 0.175 20.1833 0 19.8333 0H4.66667C4.31667 0 3.96667 0.175 3.73333 0.466667L0.233333 4.95833C0.0583333 5.19167 0 5.425 0 5.65833V19.8333C0 20.475 0.525 21 1.16667 21H23.3333C23.975 21 24.5 20.475 24.5 19.8333V5.71667C24.5 5.425 24.3833 5.19167 24.2667 4.95833ZM12.7167 17.0917C12.4833 17.2667 12.25 17.3833 11.9583 17.3833C11.6667 17.3833 11.4333 17.2667 11.2 17.0917C11.025 16.9167 10.9083 16.6833 10.9083 16.3917C10.9083 16.1 11.025 15.925 11.2 15.6917C11.375 15.5167 11.6667 15.4 11.9 15.4C12.1917 15.4 12.4833 15.5167 12.6583 15.6917C12.8917 15.8667 12.95 16.1 12.95 16.3917C13.0083 16.625 12.95 16.8583 12.7167 17.0917ZM14.8167 11.6083C14.7583 11.8417 14.6417 12.0167 14.4667 12.25L13.7667 12.95C13.4167 13.2417 13.1833 13.475 13.125 13.5917C13.0667 13.7083 12.95 13.8833 12.8917 14.0583C12.8333 14.2333 12.775 14.525 12.775 14.9333H11.1417V14.7C11.1417 14.175 11.2583 13.7083 11.4333 13.3C11.6083 12.8917 11.9583 12.4833 12.3667 12.1333C12.775 11.7833 13.0667 11.55 13.125 11.4333C13.1833 11.3167 13.2417 11.1417 13.2417 10.9667C13.2417 10.7333 13.125 10.5 12.8917 10.3833C12.6583 10.2083 12.3667 10.15 12.0167 10.15C11.6667 10.15 11.375 10.2667 11.0833 10.4417C10.85 10.6167 10.7333 10.9083 10.7333 11.2583H9.15833C9.15833 10.5583 9.39167 9.91667 9.975 9.45C10.5 8.98333 11.2 8.75 12.075 8.75C12.6583 8.75 13.125 8.86667 13.5333 9.04167C13.9417 9.21667 14.2333 9.50833 14.4667 9.91667C14.7 10.2667 14.8167 10.675 14.8167 11.0833C14.9333 11.2 14.875 11.4333 14.8167 11.6083ZM6.70833 3.85L7.64167 2.50833H16.8L17.7333 3.85H6.70833Z" fill="white"/>
</svg>
