<svg width="25" height="26" viewBox="0 0 25 26" fill="none" xmlns="http://www.w3.org/2000/svg">
<path d="M23.577 9.5149L14.5406 0.8961C13.2878 -0.2987 11.0838 -0.2987 9.831 0.8961L0.7946 9.5149C0.2842 10.0021 0 10.6285 0 11.2781V22.6287C0 24.0961 1.4094 25.2909 3.1494 25.2909H8.1664C9.1292 25.2909 9.9064 24.6297 9.9064 23.8177V19.7345C9.9064 18.8123 10.6372 17.9713 11.7044 17.7857C13.166 17.5247 14.471 18.4759 14.471 19.6707V23.8177C14.471 24.6297 15.2482 25.2909 16.211 25.2909H21.228C22.968 25.2909 24.3774 24.1019 24.3774 22.6287V11.2781C24.3716 10.6285 24.0874 10.0021 23.577 9.5149Z" fill="white"/>
</svg>
