<svg width="25" height="25" viewBox="0 0 25 25" fill="none" xmlns="http://www.w3.org/2000/svg">
<path d="M20.0127 14.5806H16.7238C18.8271 13.0701 20.0697 10.6362 20.0697 8.0484C20.0697 3.6081 16.4559 0 12.0213 0C7.5867 0 3.9729 3.6138 3.9729 8.0484C3.9729 10.6362 5.2212 13.0701 7.3188 14.5806H4.0299C1.8069 14.5806 0 16.3875 0 18.6105V20.4744C0 22.6974 1.8069 24.5043 4.0299 24.5043H20.0127C22.2357 24.5043 24.0426 22.6974 24.0426 20.4744V18.6105C24.0369 16.3818 22.2357 14.5806 20.0127 14.5806ZM11.9187 3.7962C9.576 3.8019 7.6722 5.7 7.6722 8.0427C7.6722 8.4588 7.3359 8.7951 6.9198 8.7951C6.5037 8.7951 6.1674 8.4588 6.1674 8.0427C6.1731 4.8678 8.7438 2.2971 11.9187 2.2914C12.3348 2.2914 12.6711 2.6277 12.6711 3.0438C12.6711 3.4599 12.3348 3.7962 11.9187 3.7962Z" fill="white"/>
</svg>
