<?xml version="1.0" standalone="no"?><!DOCTYPE svg PUBLIC "-//W3C//DTD SVG 1.1//EN" "http://www.w3.org/Graphics/SVG/1.1/DTD/svg11.dtd"><svg t="1774231213365" class="icon" viewBox="0 0 1024 1024" version="1.1" xmlns="http://www.w3.org/2000/svg" p-id="1571" xmlns:xlink="http://www.w3.org/1999/xlink" width="200" height="200"><path d="M433.066667 362.666667a36.266667 36.266667 0 0 1 72.533333 0v177.066666H682.666667a36.266667 36.266667 0 1 1 0 72.533334h-213.333334a36.266667 36.266667 0 0 1-36.266666-36.266667v-213.333333z" fill="#000000" p-id="1572"></path><path d="M512 91.733333c-232.106667 0-420.266667 188.16-420.266667 420.266667 0 232.106667 188.16 420.266667 420.266667 420.266667 232.106667 0 420.266667-188.16 420.266667-420.266667 0-232.106667-188.16-420.266667-420.266667-420.266667zM164.266667 512a347.733333 347.733333 0 1 1 695.466666 0 347.733333 347.733333 0 0 1-695.466666 0z" fill="#000000" p-id="1573"></path></svg>